<?xml version="1.0" standalone="no"?><!DOCTYPE svg PUBLIC "-//W3C//DTD SVG 1.1//EN" "http://www.w3.org/Graphics/SVG/1.1/DTD/svg11.dtd"><svg t="1514941151835" class="icon" style="" viewBox="0 0 1024 1024" version="1.1" xmlns="http://www.w3.org/2000/svg" p-id="25911" xmlns:xlink="http://www.w3.org/1999/xlink" width="16" height="16"><defs><style type="text/css">@font-face { font-family: rbicon; src: url("chrome-extension://dipiagiiohfljcicegpgffpbnjmgjcnf/fonts/rbicon.woff2") format("woff2"); font-weight: 400; font-style: normal; }
</style></defs><path d="M714.88 786.624h35.52c20.736 0 37.376-12.352 37.376-27.648 0-15.104-16.768-27.52-37.376-27.52h-35.52c-20.608 0-37.376 12.352-37.376 27.52 0 15.296 16.768 27.648 37.376 27.648zM714.88 621.12h35.52c20.736 0 37.376-12.352 37.376-27.648s-16.768-27.584-37.376-27.584h-35.52c-20.608 0-37.376 12.352-37.376 27.584s16.768 27.648 37.376 27.648zM494.144 621.12h35.648c20.608 0 37.312-12.352 37.312-27.648s-16.704-27.584-37.312-27.584h-35.648c-20.608 0-37.312 12.352-37.312 27.584s16.704 27.648 37.312 27.648zM273.472 621.12h35.648c20.608 0 37.312-12.352 37.312-27.648s-16.704-27.584-37.312-27.584h-35.648c-20.608 0-37.312 12.352-37.312 27.584s16.704 27.648 37.312 27.648zM494.144 786.624h35.648c20.608 0 37.312-12.352 37.312-27.648 0-15.104-16.704-27.52-37.312-27.52h-35.648c-20.608 0-37.312 12.352-37.312 27.52 0 15.296 16.704 27.648 37.312 27.648zM273.472 786.624h35.648c20.608 0 37.312-12.352 37.312-27.648 0-15.104-16.704-27.52-37.312-27.52h-35.648c-20.608 0-37.312 12.352-37.312 27.52 0 15.296 16.704 27.648 37.312 27.648z" fill="#7FBEFC" p-id="25912"></path><path d="M790.848 179.84h-55.744v-78.528l0.128-2.304c0-0.057 0.001-0.124 0.001-0.192 0-14.951-12.121-27.073-27.073-27.073-14.884 0-26.963 12.012-27.072 26.87v81.226h-335.552v-78.528c0.128-0.704 0.128-1.472 0.128-2.24-0.612-14.466-12.489-25.962-27.049-25.962-14.426 0-26.217 11.284-27.027 25.506l-0.003 81.223h-58.432c-89.6 0-162.496 62.848-162.496 181.44v426.624c-0.001 0.16-0.001 0.35-0.001 0.54 0 84.581 64.091 154.192 146.358 162.918l573.835 0.83c89.472 0 162.368-73.6 162.368-164.224v-443.968c0.064-90.56-72.832-164.16-162.368-164.16zM898.112 804.096c0 51.136-44.48 92.736-99.008 92.736h-574.144c-54.656 0-99.136-41.6-99.136-92.736v-348.48h772.288v348.48zM898.112 327.808v72.64h-772.288v-72.576c0-45.504 40-92.864 110.336-92.864h55.424v82.816c0.287 14.732 12.298 26.565 27.072 26.565 14.954 0 27.077-12.123 27.077-27.077 0-0.18-0.002-0.361-0.005-0.539 0-0.741 0-1.509-0.128-2.277v-79.552h335.552v82.816h0.128c1.212 13.939 12.826 24.795 26.976 24.795 14.487 0 26.318-11.381 27.037-25.691l-0.125-2.368v-79.552h52.608c54.592 0 115.072 40.32 110.336 92.864z" fill="#7FBEFC" p-id="25913"></path></svg>